<?xml version="1.0" encoding="UTF-8" standalone="no"?>
<!-- Created with Inkscape (http://www.inkscape.org/) -->

<svg
   width="152.77441mm"
   height="135.53227mm"
   viewBox="0 0 152.77441 135.53227"
   version="1.1"
   id="svg5"
   inkscape:version="1.2 (dc2aedaf03, 2022-05-15)"
   sodipodi:docname="logo-1.svg"
   xmlns:inkscape="http://www.inkscape.org/namespaces/inkscape"
   xmlns:sodipodi="http://sodipodi.sourceforge.net/DTD/sodipodi-0.dtd"
   xmlns:xlink="http://www.w3.org/1999/xlink"
   xmlns="http://www.w3.org/2000/svg"
   xmlns:svg="http://www.w3.org/2000/svg">
  <sodipodi:namedview
     id="namedview7"
     pagecolor="#ffffff"
     bordercolor="#000000"
     borderopacity="0.25"
     inkscape:showpageshadow="2"
     inkscape:pageopacity="0.0"
     inkscape:pagecheckerboard="0"
     inkscape:deskcolor="#d1d1d1"
     inkscape:document-units="mm"
     showgrid="false"
     inkscape:zoom="1"
     inkscape:cx="226.5"
     inkscape:cy="287"
     inkscape:window-width="2560"
     inkscape:window-height="1017"
     inkscape:window-x="-8"
     inkscape:window-y="-8"
     inkscape:window-maximized="1"
     inkscape:current-layer="layer1" />
  <defs
     id="defs2">
    <linearGradient
       inkscape:collect="always"
       id="linearGradient10348">
      <stop
         style="stop-color:#000000;stop-opacity:1;"
         offset="0"
         id="stop10344" />
      <stop
         style="stop-color:#989898;stop-opacity:0;"
         offset="1"
         id="stop10346" />
    </linearGradient>
    <linearGradient
       inkscape:collect="always"
       id="linearGradient7639">
      <stop
         style="stop-color:#000000;stop-opacity:0;"
         offset="0.89766085"
         id="stop7637" />
      <stop
         style="stop-color:#000000;stop-opacity:1;"
         offset="0.89766085"
         id="stop7635" />
    </linearGradient>
    <linearGradient
       inkscape:collect="always"
       id="linearGradient2559">
      <stop
         style="stop-color:#000000;stop-opacity:1;"
         offset="0"
         id="stop2555" />
      <stop
         style="stop-color:#ffffff;stop-opacity:1;"
         offset="1"
         id="stop2557" />
    </linearGradient>
    <linearGradient
       inkscape:collect="always"
       xlink:href="#linearGradient2559"
       id="linearGradient2561"
       x1="99.880211"
       y1="48.369137"
       x2="99.880211"
       y2="97.045349"
       gradientUnits="userSpaceOnUse"
       spreadMethod="pad"
       gradientTransform="translate(-29.56001,38.914443)" />
    <radialGradient
       inkscape:collect="always"
       xlink:href="#linearGradient7639"
       id="radialGradient7641"
       cx="172.5659"
       cy="70.625969"
       fx="172.5659"
       fy="70.625969"
       r="7.8343377"
       gradientUnits="userSpaceOnUse"
       gradientTransform="matrix(5.1339166,0,0,5.1339164,-798.78766,-260.66929)" />
    <radialGradient
       inkscape:collect="always"
       xlink:href="#linearGradient10348"
       id="radialGradient10350"
       cx="116.2756"
       cy="67.351913"
       fx="116.2756"
       fy="67.351913"
       r="7.7174072"
       gradientTransform="matrix(1,0,0,0.17272726,-29.606782,93.720787)"
       gradientUnits="userSpaceOnUse" />
  </defs>
  <g
     inkscape:groupmode="layer"
     id="layer2"
     inkscape:label="Capa 2"
     style="display:inline"
     transform="translate(-27.327734,-61.697701)">
    <path
       style="opacity:0.474916;fill:url(#linearGradient2561);fill-opacity:1;fill-rule:evenodd;stroke-width:0.314"
       d="m 28.516031,136.67798 0.01791,-12.55634 6.596671,-31.529854 6.515365,-5.093229 57.778382,-0.132292 6.548441,5.060156 6.37377,31.703489 -0.0734,12.16774 -19.5957,27.23554 -13.22917,-6.48229 -18.123958,0.66146 -12.567708,6.2177 z"
       id="path2411" />
    <path
       style="opacity:1;fill:#ffffff;fill-opacity:1;fill-rule:evenodd;stroke-width:0.314"
       d="m 85.97836,89.293208 h 12.104689 l 5.853911,4.464843 1.75286,7.474479 -2.77813,-6.515364 -5.457031,-4.167187 z"
       id="path2567"
       sodipodi:nodetypes="ccccccc" />
  </g>
  <g
     inkscape:label="Capa 1"
     inkscape:groupmode="layer"
     id="layer1"
     style="display:inline"
     transform="translate(-27.327734,-61.697701)">
    <path
       id="rect1465"
       style="fill:#202020;fill-opacity:1;fill-rule:evenodd;stroke-width:0.314"
       d="m 28.584505,136.2221 20.29968,26.56659 12.390339,-7.01583 H 79.46032 l 12.53678,7.01583 20.29968,-26.56659 1.25677,26.93896 -43.11291,32.64516 -43.112906,-32.64516 z"
       sodipodi:nodetypes="cczzcccccc" />
    <path
       id="rect1878"
       style="opacity:1;fill:#b2b2b2;fill-opacity:1;fill-rule:evenodd;stroke-width:0.314"
       d="m 54.797386,164.54444 15.594717,-4.39865 15.59449,4.39865 -15.594489,4.39874 z"
       sodipodi:nodetypes="ccccc" />
    <path
       id="rect2353"
       style="fill-rule:evenodd;stroke-width:0.612229"
       d="m 41.252393,86.615452 h 58.372986 l 6.874851,5.27843 5.84652,32.239458 -7.08735,-31.28698 -6.477571,-4.960938 H 42.095934 l -6.477576,4.960938 -7.087338,31.28698 5.846521,-32.239458 z"
       sodipodi:nodetypes="ccccccccccc" />
    <path
       style="display:inline;opacity:0.5;fill:#ffffff;fill-opacity:1;fill-rule:evenodd;stroke-width:0.314"
       d="m 95.75327,158.93605 16.00729,-21.00129 0.95912,21.92733 -1.34772,-20.21582 z"
       id="path3515"
       sodipodi:nodetypes="ccccc" />
    <path
       style="opacity:0.5;fill:#ffffff;fill-opacity:1;fill-rule:evenodd;stroke-width:0.314"
       d="m 89.83322,162.14413 -10.51719,-5.75469 -15.957681,-0.0827 15.759241,0.678 z"
       id="path3626"
       sodipodi:nodetypes="ccccc" />
    <path
       style="opacity:0.5;fill:#ffffff;fill-opacity:1;fill-rule:evenodd;stroke-width:0.314"
       d="m 47.301447,161.74725 -17.793229,-23.01874 -0.363802,7.40832 0.694532,-5.62239 z"
       id="path3628" />
  </g>
  <g
     inkscape:groupmode="layer"
     id="layer3"
     inkscape:label="Capa 3"
     style="display:inline"
     transform="translate(-27.327734,-61.697701)">
    <circle
       style="fill:url(#radialGradient7641);fill-opacity:1;fill-rule:evenodd;stroke-width:1.35834"
       id="path6907"
       cx="87.151291"
       cy="101.91853"
       r="40.220833" />
    <path
       id="rect7645"
       style="opacity:1;fill-rule:evenodd;stroke-width:0.314"
       d="m 115.77525,127.3464 63.7384,58.2463 c 3.3676,3.04019 -8.70553,13.88543 -11.23123,11.21942 l -58.17923,-63.79963 z"
       sodipodi:nodetypes="ccccc" />
    <path
       id="path7648"
       style="opacity:1;vector-effect:none;fill:#ff0000;fill-rule:evenodd;stroke-width:0.534008;stop-color:#000000;stop-opacity:1"
       d="m 99.619889,80.514682 c 0,6.80713 -8.058339,9.202769 -12.963229,23.378538 C 81.82713,89.66209 73.69343,87.619612 73.69343,80.514682 c 0,-5.615933 5.80385,-10.168548 12.96323,-10.168549 7.15939,1e-6 12.963229,4.552616 12.963229,10.168549 z"
       sodipodi:nodetypes="scsss" />
    <path
       id="rect11235-5-4-90"
       style="fill:#ffffff;fill-rule:evenodd;stroke-width:0.396824"
       d="m 91.10699,76.635033 v 3.476371 l -8.6004,3.81994 v -3.476371 z"
       sodipodi:nodetypes="ccccc" />
    <path
       id="rect11235-5-4-9-27"
       style="fill:#ffffff;fill-rule:evenodd;stroke-width:0.396824"
       d="m 91.10699,82.013975 v 3.476371 l -8.6004,3.81994 v -3.476371 z"
       sodipodi:nodetypes="ccccc" />
    <path
       id="rect11235-5-4-9-2-6"
       style="fill:#ffffff;fill-rule:evenodd;stroke-width:0.396824"
       d="m 91.10699,87.362788 v 3.476371 l -8.6004,0.497105 v -0.153536 z"
       sodipodi:nodetypes="ccccc" />
    <path
       id="rect11158-5"
       style="fill:#ffffff;fill-rule:evenodd;stroke-width:0.185863"
       d="m 84.80767,93.342401 c 1.73286,0.0088 2.05503,0 3.9089,0 2.84184,0 3.30628,-3.546561 3.30628,-3.546561 H 81.50139 c 0,0 0.383,3.531787 3.30628,3.546561 z"
       sodipodi:nodetypes="ssccs" />
    <path
       id="rect11158-7-4"
       style="fill:#ffffff;fill-rule:evenodd;stroke-width:0.185863"
       d="m 84.80817,71.389179 c 1.73286,-0.0088 2.05504,0 3.9089,0 2.84185,0 3.30628,3.546561 3.30628,3.546561 H 81.50189 c 0,0 0.383,-3.531787 3.30628,-3.546561 z"
       sodipodi:nodetypes="ssccs" />
    <path
       id="rect11235-5-2"
       style="fill:#ffffff;fill-rule:evenodd;stroke-width:0.396824"
       d="m 91.10699,73.422411 v 1.111993 l -8.6004,3.81994 v -3.476371 z"
       sodipodi:nodetypes="ccccc" />
    <ellipse
       style="font-variation-settings:normal;opacity:1;fill:url(#radialGradient10350);fill-opacity:1;fill-rule:evenodd;stroke-width:0.242239;stroke-linecap:butt;stroke-linejoin:miter;stroke-miterlimit:4;stroke-dasharray:none;stroke-dashoffset:0;stroke-opacity:1;stop-color:#000000;stop-opacity:1"
       id="path10342"
       cx="86.668808"
       cy="105.3543"
       rx="7.7174072"
       ry="1.3330066" />
    <text
       xml:space="preserve"
       style="font-style:normal;font-variant:normal;font-weight:normal;font-stretch:normal;font-size:15.1568px;font-family:'Berlin Sans FB Demi';-inkscape-font-specification:'Berlin Sans FB Demi';opacity:1;fill:#000000;fill-opacity:1;fill-rule:evenodd;stroke-width:1.49897"
       x="185.80742"
       y="13.345446"
       id="text11563"
       transform="matrix(0.74018037,0.67283981,-0.67709796,0.7355255,0,0)"><tspan
         sodipodi:role="line"
         id="tspan11561"
         style="font-style:normal;font-variant:normal;font-weight:normal;font-stretch:normal;font-family:'Berlin Sans FB Demi';-inkscape-font-specification:'Berlin Sans FB Demi';fill:#000000;stroke-width:1.49897"
         x="185.80742"
         y="13.345446">Ta'pelau</tspan></text>
  </g>
</svg>
